{"title":"The Shift (2009) WEBRip 720p x264-[f1d] mp4","uid":12498654,"size":2480420414,"categoryP":"video","categoryS":"movies","magnet":"?xt=urn:btih:5067349e339cce09ba9f133ad7aaa59d9ad13ea5&amp;dn=The+Shift+%282009%29+WEBRip+720p+x264-%5Bf1d%5D+mp4&amp;tr=udp%3A%2F%2Ftracker.leechers-paradise.org%3A6969&amp;tr=udp%3A%2F%2Fzer0day.ch%3A1337&amp;tr=udp%3A%2F%2Fopen.demonii.com%3A1337&amp;tr=udp%3A%2F%2Ftracker.coppersurfer.tk%3A6969&amp;tr=udp%3A%2F%2Fexodus.desync.com%3A6969","seeders":7,"leechers":0,"uploader":"F1_Dance","files":1,"time":1443327357,"description":"The Shift\r\n\r\nPresented in memory of a fine spiritual teacher, Dr. Wayne W. Dyer (1940-2015).\r\n\r\n\r\nIn this compelling film, Dr. Wayne W. Dyer explores the spiritual journey from ambition to meaning.\r\n\r\n\r\nDramatizations are used to illustrate Dr. Dyer's timely teaching of transformation from a life of ambition into a more meaningful life; a life that can be just as successful and full of prosperity and ambition as you desire but with greater significance through a deeper, spiritual motivation.\r\n\r\n\r\nGeneral\r\nComplete name : The.Shift.(2009).WEBRip.720p.x264-[f1d].mp4\r\nFormat : MPEG-4\r\nFormat profile : Base Media / Version 2\r\nCodec ID : mp42\r\nFile size : 2.31 GiB\r\nDuration : 2h 0mn\r\nOverall bit rate mode : Variable\r\nOverall bit rate : 2 737 Kbps\r\nEncoded date : UTC 2014-01-08 04:09:37\r\nTagged date : UTC 2014-01-08 04:09:37\r\n\r\nVideo\r\nID : 1\r\nFormat : AVC\r\nFormat/Info : Advanced Video Codec\r\nFormat profile :   \r\nFormat settings, CABAC : Yes\r\nFormat settings, ReFrames : 4 frames\r\nCodec ID : avc1\r\nCodec ID/Info : Advanced Video Coding\r\nDuration : 2h 0mn\r\nBit rate : 2 587 Kbps\r\nWidth : 1 280 pixels\r\nHeight : 720 pixels\r\nDisplay aspect ratio : 16:9\r\nFrame rate mode : Constant\r\nFrame rate : 29.970 fps\r\nColor space : YUV\r\nChroma subsampling : 4:2:0\r\nBit depth : 8 bits\r\nScan type : Progressive\r\nBits/(Pixel*Frame) : 0.094\r\nStream size : 2.18 GiB (94%)\r\nWriting library : x264 core 138 r2358 9e941d1\r\nEncoding settings : cabac=1 / ref=3 / deblock=1:0:0 / analyse=0x3:0x113 / me=hex / subme=7 / psy=1 / psy_rd=1.00:0.00 / mixed_ref=1 / me_range=16 / chroma_me=1 / trellis=1 / 8x8dct=1 / cqm=0 / deadzone=21,11 / fast_pskip=1 / chroma_qp_offset=-2 / threads=12 / lookahead_threads=2 / sliced_threads=0 / nr=0 / decimate=1 / interlaced=0 / bluray_compat=0 / stitchable=1 / constrained_intra=0 / bframes=3 / b_pyramid=2 / b_adapt=1 / b_bias=0 / direct=1 / weightb=1 / open_gop=0 / weightp=2 / keyint=90 / keyint_min=30 / scenecut=40 / intra_refresh=0 / rc_lookahead=40 / rc=2pass / mbtree=1 / bitrate=2587 / ratetol=1.0 / qcomp=0.60 / qpmin=5 / qpmax=69 / qpstep=4 / cplxblur=20.0 / qblur=0.5 / vbv_maxrate=3750 / vbv_bufsize=12500 / nal_hrd=none / ip_ratio=1.40 / aq=1:1.00\r\nEncoded date : UTC 2014-01-08 04:09:37\r\nTagged date : UTC 2014-01-08 04:09:37\r\nColor range : Limited\r\nColor primaries : BT.709\r\nTransfer characteristics : BT.709\r\nMatrix coefficients : BT.709\r\n\r\nAudio\r\nID : 2\r\nFormat : AAC\r\nFormat/Info : Advanced Audio Codec\r\nFormat profile : LC\r\nCodec ID : 40\r\nDuration : 2h 0mn\r\nBit rate mode : Variable\r\nBit rate : 147 Kbps\r\nChannel(s) : 2 channels\r\nChannel positions : Front: L R\r\nSampling rate : 48.0 KHz\r\nCompression mode : Lossy\r\nStream size : 127 MiB (5%)\r\nEncoded date : UTC 2014-01-08 04:09:37\r\nTagged date : UTC 2014-01-08 04:09:37","torrent":{"xt":"urn:btih:5067349e339cce09ba9f133ad7aaa59d9ad13ea5","amp;dn":"The+Shift+%282009%29+WEBRip+720p+x264-%5Bf1d%5D+mp4","amp;tr":["udp%3A%2F%2Ftracker.leechers-paradise.org%3A6969","udp%3A%2F%2Fzer0day.ch%3A1337","udp%3A%2F%2Fopen.demonii.com%3A1337","udp%3A%2F%2Ftracker.coppersurfer.tk%3A6969","udp%3A%2F%2Fexodus.desync.com%3A6969"],"infoHash":"5067349e339cce09ba9f133ad7aaa59d9ad13ea5","infoHashBuffer":{"type":"Buffer","data":[80,103,52,158,51,156,206,9,186,159,19,58,215,170,165,157,154,209,62,165]},"announce":[],"urlList":[]}}